<svg width="20" height="21" viewBox="0 0 20 21" fill="none" xmlns="http://www.w3.org/2000/svg">
<path d="M1 1H2.60223C3.59671 1 4.37939 1.85636 4.29652 2.84163L3.53224 12.0129C3.40333 13.5139 4.59117 14.803 6.1013 14.803H15.908C17.234 14.803 18.3942 13.7165 18.4955 12.3997L18.9927 5.49358C19.1032 3.96502 17.943 2.72192 16.4052 2.72192H4.51752" stroke="white" stroke-width="1.38122" stroke-miterlimit="10" stroke-linecap="round" stroke-linejoin="round"/>
<path d="M14.1216 19.4163C14.7573 19.4163 15.2726 18.901 15.2726 18.2653C15.2726 17.6295 14.7573 17.1143 14.1216 17.1143C13.4859 17.1143 12.9706 17.6295 12.9706 18.2653C12.9706 18.901 13.4859 19.4163 14.1216 19.4163Z" stroke="white" stroke-width="1.38122" stroke-miterlimit="10" stroke-linecap="round" stroke-linejoin="round"/>
<path d="M6.75508 19.4163C7.39078 19.4163 7.9061 18.901 7.9061 18.2653C7.9061 17.6295 7.39078 17.1143 6.75508 17.1143C6.11939 17.1143 5.60406 17.6295 5.60406 18.2653C5.60406 18.901 6.11939 19.4163 6.75508 19.4163Z" stroke="white" stroke-width="1.38122" stroke-miterlimit="10" stroke-linecap="round" stroke-linejoin="round"/>
<path d="M7.44568 6.52489H18.4955" stroke="white" stroke-width="1.38122" stroke-miterlimit="10" stroke-linecap="round" stroke-linejoin="round"/>
</svg>
